<mxfile host="app.diagrams.net" agent="Mozilla/5.0 (Windows NT 10.0; Win64; x64) AppleWebKit/537.36 (KHTML, like Gecko) Chrome/135.0.0.0 Safari/537.36" version="26.2.14">
  <diagram name="Page-1" id="oU0E_Y_fHZDeBONjB-k2">
    <mxGraphModel dx="1261" dy="947" grid="1" gridSize="10" guides="1" tooltips="1" connect="1" arrows="1" fold="1" page="1" pageScale="1" pageWidth="850" pageHeight="1100" math="0" shadow="0">
      <root>
        <mxCell id="0" />
        <mxCell id="1" parent="0" />
        <mxCell id="OyhhiD6WIfjt6LucbbjU-1" value="" style="rounded=0;whiteSpace=wrap;html=1;" vertex="1" parent="1">
          <mxGeometry x="140" y="120" width="510" height="210" as="geometry" />
        </mxCell>
        <mxCell id="OyhhiD6WIfjt6LucbbjU-2" value="Script manager" style="text;strokeColor=none;fillColor=none;html=1;fontSize=24;fontStyle=1;verticalAlign=middle;align=center;" vertex="1" parent="1">
          <mxGeometry x="345" y="130" width="100" height="40" as="geometry" />
        </mxCell>
        <mxCell id="OyhhiD6WIfjt6LucbbjU-4" value="" style="rounded=0;whiteSpace=wrap;html=1;" vertex="1" parent="1">
          <mxGeometry x="150" y="250" width="80" height="60" as="geometry" />
        </mxCell>
        <mxCell id="OyhhiD6WIfjt6LucbbjU-5" value="Porturi suspecte" style="text;html=1;align=center;verticalAlign=middle;whiteSpace=wrap;rounded=0;" vertex="1" parent="1">
          <mxGeometry x="160" y="265" width="60" height="30" as="geometry" />
        </mxCell>
        <mxCell id="OyhhiD6WIfjt6LucbbjU-6" value="" style="rounded=0;whiteSpace=wrap;html=1;" vertex="1" parent="1">
          <mxGeometry x="240" y="250" width="80" height="60" as="geometry" />
        </mxCell>
        <mxCell id="OyhhiD6WIfjt6LucbbjU-7" value="Conexiuni suspecte" style="text;html=1;align=center;verticalAlign=middle;whiteSpace=wrap;rounded=0;" vertex="1" parent="1">
          <mxGeometry x="250" y="265" width="60" height="30" as="geometry" />
        </mxCell>
        <mxCell id="OyhhiD6WIfjt6LucbbjU-8" value="" style="rounded=0;whiteSpace=wrap;html=1;" vertex="1" parent="1">
          <mxGeometry x="330" y="250" width="80" height="60" as="geometry" />
        </mxCell>
        <mxCell id="OyhhiD6WIfjt6LucbbjU-9" value="Loginuri&lt;div&gt;esuate&lt;/div&gt;" style="text;html=1;align=center;verticalAlign=middle;whiteSpace=wrap;rounded=0;" vertex="1" parent="1">
          <mxGeometry x="340" y="265" width="60" height="30" as="geometry" />
        </mxCell>
        <mxCell id="OyhhiD6WIfjt6LucbbjU-10" value="" style="rounded=0;whiteSpace=wrap;html=1;" vertex="1" parent="1">
          <mxGeometry x="420" y="250" width="80" height="60" as="geometry" />
        </mxCell>
        <mxCell id="OyhhiD6WIfjt6LucbbjU-11" value="Trafic&lt;div&gt;blocat&lt;/div&gt;" style="text;html=1;align=center;verticalAlign=middle;whiteSpace=wrap;rounded=0;" vertex="1" parent="1">
          <mxGeometry x="430" y="265" width="60" height="30" as="geometry" />
        </mxCell>
        <mxCell id="OyhhiD6WIfjt6LucbbjU-14" style="edgeStyle=orthogonalEdgeStyle;rounded=0;orthogonalLoop=1;jettySize=auto;html=1;exitX=0.5;exitY=0;exitDx=0;exitDy=0;exitPerimeter=0;entryX=0.5;entryY=1;entryDx=0;entryDy=0;" edge="1" parent="1" source="OyhhiD6WIfjt6LucbbjU-12" target="OyhhiD6WIfjt6LucbbjU-4">
          <mxGeometry relative="1" as="geometry" />
        </mxCell>
        <mxCell id="OyhhiD6WIfjt6LucbbjU-15" style="edgeStyle=orthogonalEdgeStyle;rounded=0;orthogonalLoop=1;jettySize=auto;html=1;exitX=0.5;exitY=0;exitDx=0;exitDy=0;exitPerimeter=0;entryX=0.5;entryY=1;entryDx=0;entryDy=0;" edge="1" parent="1" source="OyhhiD6WIfjt6LucbbjU-12" target="OyhhiD6WIfjt6LucbbjU-6">
          <mxGeometry relative="1" as="geometry" />
        </mxCell>
        <mxCell id="OyhhiD6WIfjt6LucbbjU-16" style="edgeStyle=orthogonalEdgeStyle;rounded=0;orthogonalLoop=1;jettySize=auto;html=1;exitX=0.5;exitY=0;exitDx=0;exitDy=0;exitPerimeter=0;entryX=0.5;entryY=1;entryDx=0;entryDy=0;" edge="1" parent="1" source="OyhhiD6WIfjt6LucbbjU-12" target="OyhhiD6WIfjt6LucbbjU-8">
          <mxGeometry relative="1" as="geometry" />
        </mxCell>
        <mxCell id="OyhhiD6WIfjt6LucbbjU-17" style="edgeStyle=orthogonalEdgeStyle;rounded=0;orthogonalLoop=1;jettySize=auto;html=1;exitX=0.5;exitY=0;exitDx=0;exitDy=0;exitPerimeter=0;entryX=0.5;entryY=1;entryDx=0;entryDy=0;" edge="1" parent="1" source="OyhhiD6WIfjt6LucbbjU-12" target="OyhhiD6WIfjt6LucbbjU-10">
          <mxGeometry relative="1" as="geometry" />
        </mxCell>
        <mxCell id="OyhhiD6WIfjt6LucbbjU-12" value="" style="shape=cylinder3;whiteSpace=wrap;html=1;boundedLbl=1;backgroundOutline=1;size=15;" vertex="1" parent="1">
          <mxGeometry x="130" y="410" width="120" height="210" as="geometry" />
        </mxCell>
        <mxCell id="OyhhiD6WIfjt6LucbbjU-13" value="Baza de date sysloguri" style="text;strokeColor=none;fillColor=none;html=1;fontSize=24;fontStyle=1;verticalAlign=middle;align=center;" vertex="1" parent="1">
          <mxGeometry x="145" y="630" width="90" height="40" as="geometry" />
        </mxCell>
        <mxCell id="OyhhiD6WIfjt6LucbbjU-20" style="edgeStyle=orthogonalEdgeStyle;rounded=0;orthogonalLoop=1;jettySize=auto;html=1;exitX=0.5;exitY=0;exitDx=0;exitDy=0;entryX=1.027;entryY=0.48;entryDx=0;entryDy=0;entryPerimeter=0;" edge="1" parent="1" target="OyhhiD6WIfjt6LucbbjU-12">
          <mxGeometry relative="1" as="geometry">
            <mxPoint x="380" y="510" as="targetPoint" />
            <mxPoint x="385" y="700" as="sourcePoint" />
            <Array as="points">
              <mxPoint x="385" y="511" />
            </Array>
          </mxGeometry>
        </mxCell>
        <mxCell id="OyhhiD6WIfjt6LucbbjU-18" value="" style="rounded=0;whiteSpace=wrap;html=1;" vertex="1" parent="1">
          <mxGeometry x="260" y="700" width="270" height="160" as="geometry" />
        </mxCell>
        <mxCell id="OyhhiD6WIfjt6LucbbjU-19" value="Dispozitive de retea" style="text;strokeColor=none;fillColor=none;html=1;fontSize=24;fontStyle=1;verticalAlign=middle;align=center;" vertex="1" parent="1">
          <mxGeometry x="345" y="760" width="100" height="40" as="geometry" />
        </mxCell>
        <mxCell id="OyhhiD6WIfjt6LucbbjU-30" style="edgeStyle=orthogonalEdgeStyle;rounded=0;orthogonalLoop=1;jettySize=auto;html=1;exitX=0;exitY=0.5;exitDx=0;exitDy=0;entryX=0.5;entryY=1;entryDx=0;entryDy=0;" edge="1" parent="1" source="OyhhiD6WIfjt6LucbbjU-21" target="OyhhiD6WIfjt6LucbbjU-29">
          <mxGeometry relative="1" as="geometry">
            <mxPoint x="510" y="340" as="targetPoint" />
          </mxGeometry>
        </mxCell>
        <mxCell id="OyhhiD6WIfjt6LucbbjU-21" value="" style="rounded=0;whiteSpace=wrap;html=1;" vertex="1" parent="1">
          <mxGeometry x="530" y="440" width="160" height="150" as="geometry" />
        </mxCell>
        <mxCell id="OyhhiD6WIfjt6LucbbjU-22" value="Endpointuri" style="text;strokeColor=none;fillColor=none;html=1;fontSize=24;fontStyle=1;verticalAlign=middle;align=center;" vertex="1" parent="1">
          <mxGeometry x="560" y="460" width="100" height="40" as="geometry" />
        </mxCell>
        <mxCell id="OyhhiD6WIfjt6LucbbjU-28" style="edgeStyle=orthogonalEdgeStyle;rounded=0;orthogonalLoop=1;jettySize=auto;html=1;exitX=0.5;exitY=0.5;exitDx=0;exitDy=0;exitPerimeter=0;entryX=1;entryY=0.5;entryDx=0;entryDy=0;" edge="1" parent="1" source="OyhhiD6WIfjt6LucbbjU-23" target="OyhhiD6WIfjt6LucbbjU-21">
          <mxGeometry relative="1" as="geometry" />
        </mxCell>
        <mxCell id="OyhhiD6WIfjt6LucbbjU-23" value="Actor" style="shape=umlActor;verticalLabelPosition=bottom;verticalAlign=top;html=1;outlineConnect=0;" vertex="1" parent="1">
          <mxGeometry x="720" y="435" width="80" height="160" as="geometry" />
        </mxCell>
        <mxCell id="OyhhiD6WIfjt6LucbbjU-25" value="" style="rounded=1;whiteSpace=wrap;html=1;" vertex="1" parent="1">
          <mxGeometry x="550" y="510" width="120" height="60" as="geometry" />
        </mxCell>
        <mxCell id="OyhhiD6WIfjt6LucbbjU-26" value="Script agent" style="text;html=1;align=center;verticalAlign=middle;whiteSpace=wrap;rounded=0;" vertex="1" parent="1">
          <mxGeometry x="580" y="525" width="60" height="30" as="geometry" />
        </mxCell>
        <mxCell id="OyhhiD6WIfjt6LucbbjU-29" value="" style="rounded=0;whiteSpace=wrap;html=1;" vertex="1" parent="1">
          <mxGeometry x="510" y="250" width="80" height="60" as="geometry" />
        </mxCell>
        <mxCell id="OyhhiD6WIfjt6LucbbjU-31" value="Alertare" style="text;html=1;align=center;verticalAlign=middle;whiteSpace=wrap;rounded=0;" vertex="1" parent="1">
          <mxGeometry x="520" y="265" width="60" height="30" as="geometry" />
        </mxCell>
      </root>
    </mxGraphModel>
  </diagram>
</mxfile>
